#!OML:ASF X:\für Bonn\!DataBase\2005_08_11_Bastian_Final\c3d\Bastian.ASF
:FULLY-SPECIFIED
:DEGREES
1470
root -2.30047 17.3423 -5.50395 169.52 30.5103 -175.738
lowerback 10.0895 -1.00966 2.28595
upperback 8.36529 -0.398544 0.664693
thorax 3.04296 0.227535 -0.544708
lowerneck -10.0574 1.16393 2.54753
upperneck -8.46967 2.23671 3.68494
head -0.993832 1.35324 0.756485
rclavicle 2.99171e-014 -1.25234e-014
rhumerus -224.758 -190.789 86.6349
rradius 102.599
rwrist -156.388
rhand -18.8852 4.89071
rfingers 7.12502
rthumb 7.416 -24.9593
lclavicle 2.99171e-014 -1.25234e-014
lhumerus -32.2865 -11.9994 90.7982
lradius 76.5926
lwrist 220.358
lhand -38.945 10.8589
lfingers 7.12502
lthumb -11.9506 40.4978
rfemur 2.55043 -0.560259 22.7886
rtibia 34.6841
rfoot -17.2993 -14.4969
rtoes -2.87662
lfemur -4.1223 5.04939 -12.6454
ltibia 54.8403
lfoot -10.4417 -4.93792
ltoes -32.9314
1471
root -2.32369 17.3493 -5.44103 169.692 30.543 -175.72
lowerback 9.74643 -1.04455 2.27833
upperback 8.28555 -0.478826 0.683497
thorax 3.14397 0.17671 -0.517059
lowerneck -9.88 1.19704 2.39655
upperneck -8.36518 2.28984 3.88032
head -0.993405 1.37673 0.841982
rclavicle -8.43095e-014 -4.37326e-015
rhumerus -224.89 -190.707 86.6103
rradius 102.904
rwrist -156.576
rhand -18.7062 4.83859
rfingers 7.12502
rthumb 7.58874 -25.0053
lclavicle -8.43095e-014 -4.37326e-015
lhumerus -32.3589 -12.4833 90.8083
lradius 76.4733
lwrist 220.134
lhand -38.5132 11.0593
lfingers 7.12502
lthumb -11.5342 40.7219
rfemur 2.09742 -0.120191 22.9935
rtibia 34.7862
rfoot -17.2073 -14.8159
rtoes -2.46584
lfemur -3.04313 5.03549 -12.929
ltibia 54.7344
lfoot -10.5508 -5.31067
ltoes -33.5928
1472
root -2.34503 17.3583 -5.37954 169.916 30.5679 -175.735
lowerback 9.30816 -1.07363 2.21036
upperback 8.20876 -0.560642 0.70145
thorax 3.30132 0.121802 -0.457597
lowerneck -9.70298 1.22768 2.23527
upperneck -8.33204 2.34843 4.06272
head -1.01565 1.40399 0.925252
rclavicle -4.08999e-014 -1.37161e-014
rhumerus -225.056 -190.644 86.6143
rradius 103.278
rwrist -156.759
rhand -18.4791 4.77364
rfingers 7.12502
rthumb 7.80792 -25.0622
lclavicle -4.08999e-014 -1.37161e-014
lhumerus -32.3904 -12.9854 90.8338
lradius 76.4051
lwrist 219.971
lhand -38.0274 11.1185
lfingers 7.12502
lthumb -11.0657 40.8068
rfemur 1.57673 0.375273 23.1784
rtibia 34.8968
rfoot -17.1087 -15.1677
rtoes -2.09669
lfemur -1.9968 4.95385 -13.2653
ltibia 54.42
lfoot -10.6417 -5.62282
ltoes -34.2117
1473
root -2.36853 17.3656 -5.31886 170.164 30.5926 -175.704
lowerback 8.88417 -1.1112 2.1918
upperback 8.13222 -0.648777 0.715567
thorax 3.45135 0.066557 -0.430272
lowerneck -9.55884 1.26313 2.18545
upperneck -8.27215 2.39421 4.14027
head -1.02187 1.42231 0.957485
rclavicle 2.91468e-014 -1.11319e-014
rhumerus -225.226 -190.54 86.6046
rradius 103.684
rwrist -156.944
rhand -18.3317 4.68477
rfingers 7.12502
rthumb 7.9502 -25.1457
lclavicle 2.91468e-014 -1.11319e-014
lhumerus -32.3717 -13.4378 90.837
lradius 76.3151
lwrist 219.772
lhand -37.573 11.2309
lfingers 7.12502
lthumb -10.6274 40.9421
rfemur 1.04456 0.806097 23.364
rtibia 35.0224
rfoot -17.0521 -15.4579
rtoes -1.67581
lfemur -0.87258 4.8011 -13.5791
ltibia 53.8982
lfoot -10.7506 -5.83379
ltoes -34.6998
1474
root -2.39202 17.3714 -5.25815 170.389 30.6206 -175.727
lowerback 8.46315 -1.1518 2.0902
upperback 8.04574 -0.746289 0.73265
thorax 3.59081 0.00189221 -0.353986
lowerneck -9.38897 1.31393 2.1405
upperneck -8.22487 2.45878 4.18448
head -1.03597 1.44882 0.978497
rclavicle -2.66371e-014 6.36111e-015
rhumerus -225.426 -190.488 86.6202
rradius 104.094
rwrist -157.125
rhand -18.1668 4.56598
rfingers 7.12502
rthumb 8.1094 -25.2584
lclavicle -2.66371e-014 6.36111e-015
lhumerus -32.358 -13.8155 90.8578
lradius 76.2154
lwrist 219.597
lhand -37.1662 11.2925
lfingers 7.12502
lthumb -10.235 41.0235
rfemur 0.484737 1.24408 23.4861
rtibia 35.1759
rfoot -16.962 -15.7339
rtoes -1.20584
lfemur 0.311801 4.5868 -13.9455
ltibia 53.172
lfoot -10.8459 -6.04747
ltoes -34.7733
1475
root -2.41681 17.376 -5.19709 170.649 30.6185 -175.698
lowerback 8.07122 -1.20774 2.04539
upperback 7.94713 -0.859436 0.749033
thorax 3.7013 -0.0681421 -0.3103
lowerneck -9.24239 1.36959 2.11969
upperneck -8.1708 2.52569 4.20115
head -1.0437 1.47656 0.987094
rclavicle -8.25702e-014 2.20651e-014
rhumerus -225.61 -190.401 86.6263
rradius 104.505
rwrist -157.31
rhand -18.0795 4.47306
rfingers 7.12502
rthumb 8.19362 -25.3481
lclavicle -8.25702e-014 2.20651e-014
lhumerus -32.329 -14.2271 90.8682
lradius 76.1104
lwrist 219.479
lhand -36.7933 11.2661
lfingers 7.12502
lthumb -9.87525 41.0145
rfemur -0.102686 1.62944 23.6347
rtibia 35.3631
rfoot -16.9432 -15.9805
rtoes -0.905559
lfemur 1.5334 4.307 -14.2687
ltibia 52.2582
lfoot -10.8253 -6.25594
ltoes -34.5998
1476
root -2.44135 17.3769 -5.13601 170.858 30.6079 -175.663
lowerback 7.75329 -1.27039 1.95248
upperback 7.83097 -0.980939 0.79511
thorax 3.7542 -0.145736 -0.208944
lowerneck -9.03561 1.42731 2.09814
upperneck -8.06861 2.5855 4.18354
head -1.04531 1.49776 0.984429
rclavicle -5.01931e-014 3.53837e-014
rhumerus -225.865 -190.319 86.6519
rradius 104.906
rwrist -157.434
rhand -18.0113 4.30282
rfingers 7.12502
rthumb 8.25942 -25.5157
lclavicle -5.01931e-014 3.53837e-014
lhumerus -32.3499 -14.6206 90.9176
lradius 75.9769
lwrist 219.361
lhand -36.4378 11.2709
lfingers 7.12502
lthumb -9.5322 41.0353
rfemur -0.654236 2.02307 23.7853
rtibia 35.6005
rfoot -16.9874 -16.2235
rtoes -0.347219
lfemur 2.85822 4.01121 -14.5627
ltibia 51.1584
lfoot -10.7233 -6.52588
ltoes -34.5429
1477
root -2.46673 17.3756 -5.07451 171.073 30.5351 -175.623
lowerback 7.45234 -1.34693 1.87184
upperback 7.71131 -1.11838 0.823193
thorax 3.79415 -0.229982 -0.1331
lowerneck -8.8471 1.48433 2.08915
upperneck -7.97101 2.64845 4.20868
head -1.04614 1.52165 0.993237
rclavicle -3.58558e-014 -3.97569e-016
rhumerus -226.077 -190.198 86.6601
rradius 105.286
rwrist -157.543
rhand -17.9475 4.17348
rfingers 7.12502
rthumb 8.32101 -25.6426
lclavicle -3.58558e-014 -3.97569e-016
lhumerus -32.3036 -15.1448 90.938
lradius 75.791
lwrist 219.33
lhand -35.9967 11.3073
lfingers 7.12502
lthumb -9.10658 41.0907
rfemur -1.23967 2.2519 23.8879
rtibia 35.8795
rfoot -17.045 -16.3635
rtoes 0.171779
lfemur 4.19 3.61374 -14.8625
ltibia 49.8998
lfoot -10.5831 -6.76899
ltoes -34.4821
1478
root -2.49222 17.372 -5.01271 171.322 30.4329 -175.547
lowerback 7.1396 -1.44918 1.75696
upperback 7.59628 -1.29111 0.901059
thorax 3.84795 -0.334009 0.0136033
lowerneck -8.67677 1.54619 2.0734
upperneck -7.85706 2.7099 4.1528
head -1.03766 1.54453 0.977954
rclavicle -9.21864e-015 -1.09332e-015
rhumerus -226.257 -190.133 86.7322
rradius 105.71
rwrist -157.61
rhand -18.0033 4.02541
rfingers 7.12502
rthumb 8.26711 -25.7928
lclavicle -9.21864e-015 -1.09332e-015
lhumerus -32.1948 -15.6501 90.9827
lradius 75.555
lwrist 219.345
lhand -35.4118 11.3523
lfingers 7.12502
lthumb -8.54218 41.1595
rfemur -1.87138 2.43819 24.0148
rtibia 36.2022
rfoot -17.1249 -16.5079
rtoes 0.570022
lfemur 5.5262 3.18193 -15.1244
ltibia 48.4717
lfoot -10.4488 -6.99396
ltoes -33.985
1479
root -2.5201 17.3632 -4.9479 171.515 30.3523 -175.406
lowerback 6.98088 -1.54231 1.71296
upperback 7.49293 -1.43784 0.97039
thorax 3.82824 -0.419054 0.112562
lowerneck -8.55791 1.59952 2.02671
upperneck -7.70363 2.76551 4.1924
head -1.01048 1.56746 0.998332
rclavicle -7.85199e-015 1.69961e-014
rhumerus -226.451 -189.993 86.8089
rradius 106.198
rwrist -157.629
rhand -18.1179 3.88571
rfingers 7.12502
rthumb 8.15654 -25.9369
lclavicle -7.85199e-015 1.69961e-014
lhumerus -32.0499 -16.2211 90.9975
lradius 75.2965
lwrist 219.369
lhand -34.915 11.4289
lfingers 7.12502
lthumb -8.06269 41.2551
rfemur -2.44599 2.49426 24.1688
rtibia 36.5632
rfoot -17.2033 -16.5282
rtoes 0.998384
lfemur 6.97991 2.74352 -15.3012
ltibia 46.8768
lfoot -10.2849 -7.21961
ltoes -32.836
